<mxfile host="app.diagrams.net" modified="2022-11-21T02:26:51.326Z" agent="5.0 (Windows NT 10.0; Win64; x64) AppleWebKit/537.36 (KHTML, like Gecko) Chrome/107.0.0.0 Safari/537.36 Edg/107.0.1418.52" etag="Kx1YqvNAe41f6ef_wBmn" version="20.5.3" type="github">
  <diagram id="o73ixFc_ehx05NRXqeoQ" name="Page-1">
    <mxGraphModel dx="3175" dy="800" grid="1" gridSize="10" guides="1" tooltips="1" connect="1" arrows="1" fold="1" page="1" pageScale="1" pageWidth="850" pageHeight="1100" math="0" shadow="0">
      <root>
        <mxCell id="0" />
        <mxCell id="1" parent="0" />
        <mxCell id="dhIKAuD3GW7eXMySEyC3-1" value="End-User Registration Request" style="edgeStyle=orthogonalEdgeStyle;rounded=0;orthogonalLoop=1;jettySize=auto;html=1;" edge="1" parent="1" source="dhIKAuD3GW7eXMySEyC3-2" target="dhIKAuD3GW7eXMySEyC3-4">
          <mxGeometry relative="1" as="geometry" />
        </mxCell>
        <mxCell id="dhIKAuD3GW7eXMySEyC3-2" value="End-User" style="whiteSpace=wrap;align=center;verticalAlign=middle;fontStyle=1;strokeWidth=3;fillColor=#FFFFCC" vertex="1" parent="1">
          <mxGeometry x="-1596.25" y="260" width="90" height="60" as="geometry" />
        </mxCell>
        <mxCell id="dhIKAuD3GW7eXMySEyC3-3" value="Name Details Request&amp;nbsp;" style="edgeStyle=orthogonalEdgeStyle;rounded=0;orthogonalLoop=1;jettySize=auto;html=1;entryX=0.5;entryY=0;entryDx=0;entryDy=0;" edge="1" parent="1" source="dhIKAuD3GW7eXMySEyC3-4" target="dhIKAuD3GW7eXMySEyC3-6">
          <mxGeometry relative="1" as="geometry">
            <mxPoint x="-1551.25" y="540" as="targetPoint" />
          </mxGeometry>
        </mxCell>
        <mxCell id="dhIKAuD3GW7eXMySEyC3-4" value="&lt;p style=&quot;margin: 0px; margin-top: 4px; text-align: center; text-decoration: underline;&quot;&gt;&lt;strong&gt;0.0&lt;/strong&gt;&lt;/p&gt;&lt;hr&gt;&lt;p style=&quot;margin: 0px; margin-left: 8px;&quot;&gt;Proceed to Register&lt;/p&gt;" style="verticalAlign=middle;align=center;overflow=fill;fontSize=12;fontFamily=Helvetica;html=1;rounded=1;fontStyle=1;strokeWidth=3;fillColor=#E6FFCC" vertex="1" parent="1">
          <mxGeometry x="-1657.5" y="400" width="212.5" height="60" as="geometry" />
        </mxCell>
        <mxCell id="dhIKAuD3GW7eXMySEyC3-14" value="User Infotmation" style="edgeStyle=orthogonalEdgeStyle;rounded=0;orthogonalLoop=1;jettySize=auto;html=1;entryX=0;entryY=0.5;entryDx=0;entryDy=0;" edge="1" parent="1" source="dhIKAuD3GW7eXMySEyC3-6" target="dhIKAuD3GW7eXMySEyC3-8">
          <mxGeometry relative="1" as="geometry" />
        </mxCell>
        <mxCell id="dhIKAuD3GW7eXMySEyC3-6" value="&lt;p style=&quot;margin: 0px; margin-top: 4px; text-align: center; text-decoration: underline;&quot;&gt;&lt;strong&gt;0.1&lt;/strong&gt;&lt;/p&gt;&lt;hr&gt;&lt;p style=&quot;margin: 0px; margin-left: 8px;&quot;&gt;Submit Registration&lt;/p&gt;" style="verticalAlign=middle;align=center;overflow=fill;fontSize=12;fontFamily=Helvetica;html=1;rounded=1;fontStyle=1;strokeWidth=3;fillColor=#E6FFCC" vertex="1" parent="1">
          <mxGeometry x="-1660" y="565" width="212.5" height="60" as="geometry" />
        </mxCell>
        <mxCell id="dhIKAuD3GW7eXMySEyC3-7" value="Availability Confirmation" style="edgeStyle=orthogonalEdgeStyle;rounded=0;orthogonalLoop=1;jettySize=auto;html=1;" edge="1" parent="1" source="dhIKAuD3GW7eXMySEyC3-8">
          <mxGeometry relative="1" as="geometry">
            <mxPoint x="-1193.75" y="420" as="targetPoint" />
          </mxGeometry>
        </mxCell>
        <mxCell id="dhIKAuD3GW7eXMySEyC3-8" value="&lt;p style=&quot;margin: 0px; margin-top: 4px; text-align: center; text-decoration: underline;&quot;&gt;&lt;strong&gt;0.2&lt;/strong&gt;&lt;/p&gt;&lt;hr&gt;&lt;p style=&quot;margin: 0px; margin-left: 8px;&quot;&gt;Check Availability&lt;/p&gt;" style="verticalAlign=middle;align=center;overflow=fill;fontSize=12;fontFamily=Helvetica;html=1;rounded=1;fontStyle=1;strokeWidth=3;fillColor=#E6FFCC" vertex="1" parent="1">
          <mxGeometry x="-1300" y="565" width="212.5" height="60" as="geometry" />
        </mxCell>
        <mxCell id="dhIKAuD3GW7eXMySEyC3-9" value="&lt;br&gt;&lt;span style=&quot;color: rgb(0, 0, 0); font-family: Helvetica; font-size: 11px; font-style: normal; font-variant-ligatures: normal; font-variant-caps: normal; font-weight: 400; letter-spacing: normal; orphans: 2; text-align: center; text-indent: 0px; text-transform: none; widows: 2; word-spacing: 0px; -webkit-text-stroke-width: 0px; background-color: rgb(255, 255, 255); text-decoration-thickness: initial; text-decoration-style: initial; text-decoration-color: initial; float: none; display: inline !important;&quot;&gt;Username Availability&lt;/span&gt;&lt;br&gt;" style="edgeStyle=orthogonalEdgeStyle;rounded=0;orthogonalLoop=1;jettySize=auto;html=1;" edge="1" parent="1" source="dhIKAuD3GW7eXMySEyC3-10" target="dhIKAuD3GW7eXMySEyC3-8">
          <mxGeometry x="-0.0219" y="-20" relative="1" as="geometry">
            <mxPoint as="offset" />
          </mxGeometry>
        </mxCell>
        <mxCell id="dhIKAuD3GW7eXMySEyC3-10" value="&lt;span style=&quot;white-space: pre;&quot;&gt; &lt;span style=&quot;white-space: pre;&quot;&gt; &lt;span style=&quot;white-space: pre;&quot;&gt;	&lt;/span&gt;&lt;/span&gt;&lt;/span&gt;&amp;nbsp;User Database" style="html=1;dashed=0;whitespace=wrap;shape=mxgraph.dfd.dataStoreID;align=left;spacingLeft=3;points=[[0,0],[0.5,0],[1,0],[0,0.5],[1,0.5],[0,1],[0.5,1],[1,1]];fillColor=#CDA2BE;" vertex="1" parent="1">
          <mxGeometry x="-975" y="580" width="125" height="30" as="geometry" />
        </mxCell>
        <mxCell id="dhIKAuD3GW7eXMySEyC3-19" value="Verification" style="edgeStyle=orthogonalEdgeStyle;rounded=0;orthogonalLoop=1;jettySize=auto;html=1;exitX=0.5;exitY=0;exitDx=0;exitDy=0;" edge="1" parent="1" source="dhIKAuD3GW7eXMySEyC3-16" target="dhIKAuD3GW7eXMySEyC3-18">
          <mxGeometry relative="1" as="geometry" />
        </mxCell>
        <mxCell id="dhIKAuD3GW7eXMySEyC3-15" value="&lt;span style=&quot;white-space: pre;&quot;&gt; &lt;span style=&quot;white-space: pre;&quot;&gt; &lt;span style=&quot;white-space: pre;&quot;&gt;	&lt;/span&gt;&lt;/span&gt;&lt;/span&gt;&amp;nbsp;User Database" style="html=1;dashed=0;whitespace=wrap;shape=mxgraph.dfd.dataStoreID;align=left;spacingLeft=3;points=[[0,0],[0.5,0],[1,0],[0,0.5],[1,0.5],[0,1],[0.5,1],[1,1]];fillColor=#CDA2BE;" vertex="1" parent="1">
          <mxGeometry x="-975" y="375" width="125" height="30" as="geometry" />
        </mxCell>
        <mxCell id="dhIKAuD3GW7eXMySEyC3-17" value="User Information" style="edgeStyle=orthogonalEdgeStyle;rounded=0;orthogonalLoop=1;jettySize=auto;html=1;entryX=0;entryY=0.5;entryDx=0;entryDy=0;" edge="1" parent="1" source="dhIKAuD3GW7eXMySEyC3-16" target="dhIKAuD3GW7eXMySEyC3-15">
          <mxGeometry x="0.0222" y="10" relative="1" as="geometry">
            <mxPoint as="offset" />
          </mxGeometry>
        </mxCell>
        <mxCell id="dhIKAuD3GW7eXMySEyC3-16" value="&lt;p style=&quot;margin: 0px; margin-top: 4px; text-align: center; text-decoration: underline;&quot;&gt;&lt;strong&gt;0.3&lt;/strong&gt;&lt;/p&gt;&lt;hr&gt;&lt;p style=&quot;margin: 0px; margin-left: 8px;&quot;&gt;Confirm Registration&lt;/p&gt;" style="verticalAlign=middle;align=center;overflow=fill;fontSize=12;fontFamily=Helvetica;html=1;rounded=1;fontStyle=1;strokeWidth=3;fillColor=#E6FFCC" vertex="1" parent="1">
          <mxGeometry x="-1300" y="360" width="212.5" height="60" as="geometry" />
        </mxCell>
        <mxCell id="dhIKAuD3GW7eXMySEyC3-21" value="User Action" style="edgeStyle=orthogonalEdgeStyle;rounded=0;orthogonalLoop=1;jettySize=auto;html=1;entryX=0.5;entryY=1;entryDx=0;entryDy=0;" edge="1" parent="1" source="dhIKAuD3GW7eXMySEyC3-18" target="dhIKAuD3GW7eXMySEyC3-20">
          <mxGeometry relative="1" as="geometry" />
        </mxCell>
        <mxCell id="dhIKAuD3GW7eXMySEyC3-18" value="&lt;p style=&quot;margin: 0px; margin-top: 4px; text-align: center; text-decoration: underline;&quot;&gt;&lt;strong&gt;0.4&lt;/strong&gt;&lt;/p&gt;&lt;hr&gt;&lt;p style=&quot;margin: 0px; margin-left: 8px;&quot;&gt;Send Email Verification Link&lt;/p&gt;" style="verticalAlign=middle;align=center;overflow=fill;fontSize=12;fontFamily=Helvetica;html=1;rounded=1;fontStyle=1;strokeWidth=3;fillColor=#E6FFCC" vertex="1" parent="1">
          <mxGeometry x="-1300" y="170" width="212.5" height="60" as="geometry" />
        </mxCell>
        <mxCell id="dhIKAuD3GW7eXMySEyC3-23" value="Email Confirmation" style="edgeStyle=orthogonalEdgeStyle;rounded=0;orthogonalLoop=1;jettySize=auto;html=1;entryX=0;entryY=0.5;entryDx=0;entryDy=0;" edge="1" parent="1" source="dhIKAuD3GW7eXMySEyC3-20" target="dhIKAuD3GW7eXMySEyC3-22">
          <mxGeometry relative="1" as="geometry" />
        </mxCell>
        <mxCell id="dhIKAuD3GW7eXMySEyC3-20" value="End-User" style="whiteSpace=wrap;align=center;verticalAlign=middle;fontStyle=1;strokeWidth=3;fillColor=#FFFFCC" vertex="1" parent="1">
          <mxGeometry x="-1238.75" y="40" width="90" height="60" as="geometry" />
        </mxCell>
        <mxCell id="dhIKAuD3GW7eXMySEyC3-25" value="Verification Update" style="edgeStyle=orthogonalEdgeStyle;rounded=0;orthogonalLoop=1;jettySize=auto;html=1;entryX=0.5;entryY=0;entryDx=0;entryDy=0;" edge="1" parent="1" source="dhIKAuD3GW7eXMySEyC3-22" target="dhIKAuD3GW7eXMySEyC3-15">
          <mxGeometry relative="1" as="geometry" />
        </mxCell>
        <mxCell id="dhIKAuD3GW7eXMySEyC3-22" value="&lt;p style=&quot;margin: 0px; margin-top: 4px; text-align: center; text-decoration: underline;&quot;&gt;&lt;strong&gt;0.5&lt;/strong&gt;&lt;/p&gt;&lt;hr&gt;&lt;p style=&quot;margin: 0px; margin-left: 8px;&quot;&gt;Confirm Email&lt;/p&gt;" style="verticalAlign=middle;align=center;overflow=fill;fontSize=12;fontFamily=Helvetica;html=1;rounded=1;fontStyle=1;strokeWidth=3;fillColor=#E6FFCC" vertex="1" parent="1">
          <mxGeometry x="-1018.75" y="40" width="212.5" height="60" as="geometry" />
        </mxCell>
      </root>
    </mxGraphModel>
  </diagram>
</mxfile>
